<svg width="156" height="150" viewBox="0 0 156 150" fill="none" xmlns="http://www.w3.org/2000/svg">
<g id="Frame 7">
<rect id="Rectangle 8" x="0.285767" width="155" height="150" rx="30" fill="#EBEBEB"/>
<g id="Vector">
<path fill-rule="evenodd" clip-rule="evenodd" d="M106.147 63.3179H113.781L112.879 67.7556C115.212 64.107 117.882 63.0554 121.154 62.8297C122.281 62.7934 123.673 62.9428 124.915 63.1306L123.447 68.9597C122.244 68.6588 120.966 68.4332 119.837 68.4332C115.324 68.3585 111.977 71.4027 110.811 75.7642L108.178 85.7691H100.282C102.236 78.2855 104.832 70.126 106.147 63.3179Z" fill="#3E3E3E"/>
<path fill-rule="evenodd" clip-rule="evenodd" d="M84.4419 73.2896C85.758 72.6504 90.3462 72.7199 93.3168 72.3438C96.7398 71.9303 101.514 70.0497 101.401 67.1917C101.213 64.1453 98.5068 63.4548 95.9865 63.7936C90.0453 64.6584 86.1715 68.5514 84.4419 73.2896ZM83.7062 75.2335C83.5563 76.5486 83.3892 77.9478 83.5013 79.0009C83.9895 82.7238 87.2542 84.4653 90.7514 84.5779C93.6644 84.6469 97.215 82.9048 99.1465 80.7347C99.5112 80.3244 99.9309 80.4582 100.178 80.7856C100.366 81.0356 100.292 81.6001 100.118 81.7723C97.0853 84.7839 93.9669 86.4829 89.6318 86.5203C84.7054 86.5576 78.5365 84.6791 77.7853 79.5654C77.6722 78.9636 77.6722 78.2865 77.7474 77.5711C78.7253 68.0975 87.3756 62.9796 95.8744 62.5283C99.9355 62.3026 105.804 63.3557 105.464 67.7561C105.127 72.3822 98.1307 73.9993 93.5804 74.1118C89.7444 74.2244 85.0224 74.2073 83.7062 75.2335Z" fill="#3E3E3E"/>
<path fill-rule="evenodd" clip-rule="evenodd" d="M79.4635 80.5817L78.1858 85.4697C76.0421 85.9216 73.2578 86.3361 70.7001 86.2598C63.1035 86.1099 57.5374 82.6112 57.8761 75.3907C58.2891 67.0801 66.5265 62.8302 74.4619 62.7171C77.0947 62.7171 79.5014 62.9796 82.1711 63.6193L79.8023 68.3201C78.0721 67.8314 75.7402 67.38 73.4082 67.6057C69.7601 67.8687 66.4134 69.8245 65.4354 73.6605C64.1566 78.4738 66.9394 81.8605 71.8664 81.8605C74.4614 81.8605 76.9816 81.3344 79.4635 80.5817Z" fill="#3E3E3E"/>
<path fill-rule="evenodd" clip-rule="evenodd" d="M47.3457 62.7918C53.7014 62.7918 58.4883 64.2517 58.9449 69.5288C59.1207 71.5589 58.3809 73.3694 57.817 75.5136L55.1681 85.8085C50.0912 85.8085 45.9543 85.9211 41.3662 86.2977C37.1162 86.2977 32.0388 85.395 32.0388 79.9788C32.1281 71.1288 45.8412 71.9303 51.6704 71.9303C52.9118 68.3953 50.0154 66.966 45.9538 66.966C42.2683 66.966 39.2329 68.0192 36.2618 68.9971L37.3035 64.2206C40.2004 63.2805 43.9233 62.7918 47.3457 62.7918ZM50.8055 75.4654C47.6031 75.4654 38.5533 74.71 38.5533 79.6027C38.5533 82.0467 41.1109 82.4114 43.2546 82.4114C48.8876 82.4114 49.7664 80.4447 50.8055 75.4654ZM122.26 81.2187C121.854 81.2164 121.453 81.2951 121.078 81.4503C120.704 81.6055 120.364 81.834 120.079 82.1225C119.479 82.7616 119.14 83.5502 119.14 84.3771C119.14 85.2062 119.479 85.9579 120.043 86.5597C120.643 87.1615 121.434 87.4997 122.259 87.4997C123.087 87.4997 123.877 87.1615 124.48 86.5597C125.083 85.9579 125.382 85.2062 125.382 84.3771C125.382 83.5139 125.083 82.7253 124.48 82.1604C123.878 81.5586 123.088 81.2187 122.26 81.2187ZM125.084 84.3771C125.084 85.1299 124.782 85.809 124.255 86.3335C123.722 86.8576 123.007 87.1545 122.26 87.1615C121.889 87.1611 121.523 87.0878 121.181 86.9458C120.839 86.8037 120.529 86.5956 120.267 86.3335C119.741 85.8085 119.442 85.0931 119.442 84.3771C119.442 83.6275 119.741 82.9121 120.267 82.3466C120.796 81.8186 121.512 81.5216 122.26 81.5207C123.013 81.5207 123.729 81.8216 124.255 82.386C124.782 82.9121 125.084 83.5881 125.084 84.3771ZM122.337 82.4976H121.057V86.1099H121.547V84.4918H122.45L123.239 86.1099H123.804L122.976 84.4555C123.502 84.3777 123.841 84.0015 123.841 83.5144C123.841 82.7995 123.352 82.4976 122.337 82.4976ZM122.26 82.8369C122.976 82.8369 123.352 83.0241 123.352 83.476C123.352 84.0394 123.013 84.1904 122.26 84.1904H121.547V82.8369H122.26Z" fill="#3E3E3E"/>
</g>
</g>
</svg>
