<svg width="213" height="251" viewBox="0 0 213 251" fill="none" xmlns="http://www.w3.org/2000/svg">
<path id="Vector" d="M236.725 212.498C231.043 215.764 225.268 218.867 219.388 221.786C192.434 235.172 161.661 246.474 131.443 248.674C75.9949 252.693 28.1391 215.567 9.69123 164.65C0.93022 140.482 -1.47706 114.103 9.66806 90.3294C19.5054 69.3464 38.2079 53.864 57.6742 42.1566C107.625 12.1181 167.181 0.503312 224.793 1.60341C228.774 1.68447 232.756 1.80028 236.737 1.95082V0.422256C222.687 -0.0988441 208.637 -0.122002 194.645 0.514898C164.566 1.9045 135.586 8.23875 107.22 18.1049C67.5 31.9083 22.1441 54.0608 5.80254 95.7141C-3.01634 118.191 0.536724 142.822 8.314 165.032C16.4501 188.273 30.9514 209.152 50.1053 224.623C68.7384 239.677 91.7114 248.396 115.541 250.122C143.93 252.183 172.875 242.919 198.915 232.52C212.028 227.286 224.62 221.114 236.748 214.166V212.487L236.725 212.498Z" fill="#2F695D"/>
</svg>
