<svg width="213" height="251" viewBox="0 0 213 251" fill="none" xmlns="http://www.w3.org/2000/svg">
<path id="Vector" d="M-23.7253 212.498C-18.0428 215.764 -12.2677 218.867 -6.38847 221.786C20.5658 235.172 51.3393 246.474 81.5573 248.674C137.005 252.693 184.861 215.567 203.309 164.65C212.07 140.482 214.477 114.103 203.332 90.3294C193.495 69.3464 174.792 53.864 155.326 42.1566C105.375 12.1181 45.8188 0.503312 -11.7932 1.60341C-15.7744 1.68447 -19.7557 1.80028 -23.7369 1.95082V0.422256C-9.68686 -0.0988441 4.36316 -0.122002 18.3553 0.514898C48.4344 1.9045 77.4141 8.23875 105.78 18.1049C145.5 31.9083 190.856 54.0608 207.197 95.7141C216.016 118.191 212.463 142.822 204.686 165.032C196.55 188.273 182.049 209.152 162.895 224.623C144.262 239.677 121.289 248.396 97.4591 250.122C69.0697 252.183 40.1248 242.919 14.0848 232.52C0.972168 227.286 -11.6196 221.114 -23.7485 214.166V212.487L-23.7253 212.498Z" fill="#2F695D"/>
</svg>
