<svg width="100" height="20" viewBox="0 0 100 20" fill="none" xmlns="http://www.w3.org/2000/svg">
<g id="asus-logo 1" clip-path="url(#clip0_367_70)">
<path id="Vector" d="M95.7196 2.51257C95.7196 1.37726 96.6316 0.446679 97.7483 0.446679C98.288 0.446679 98.7905 0.670019 99.1814 1.04225C99.5722 1.4331 99.7769 1.95422 99.7769 2.49396C99.7769 3.0337 99.5722 3.55482 99.1814 3.94567C98.7905 4.33651 98.288 4.55985 97.7483 4.55985C96.6316 4.55985 95.7196 3.64788 95.7196 2.51257ZM95.5521 2.51257C95.5521 3.74094 96.5385 4.74597 97.7669 4.74597C98.3625 4.74597 98.9022 4.52263 99.3117 4.09456C99.7211 3.66649 99.9631 3.10814 99.9631 2.51257C99.9631 1.917 99.7397 1.35865 99.3117 0.930582C98.8836 0.502514 98.3439 0.279174 97.7669 0.279174C96.5385 0.279174 95.5521 1.2842 95.5521 2.51257ZM96.9294 3.834H97.2458V2.79174H97.953C98.0647 2.79174 98.1577 2.79174 98.2322 2.82897C98.3252 2.8848 98.3811 2.99647 98.3997 3.14537L98.4369 3.55482V3.74094C98.4555 3.77816 98.4555 3.79677 98.4741 3.81538H98.865V3.75955C98.8092 3.74094 98.7905 3.6851 98.7719 3.61066C98.7533 3.57343 98.7533 3.49899 98.7533 3.40593L98.7347 3.08953C98.7347 2.94064 98.6975 2.84758 98.6602 2.79174C98.6044 2.73591 98.53 2.68007 98.4369 2.64285C98.5486 2.58702 98.623 2.51257 98.6789 2.41951C98.7347 2.32645 98.7533 2.21478 98.7533 2.06589C98.7533 1.78672 98.6416 1.6006 98.4369 1.48893C98.3252 1.4331 98.1763 1.41448 98.0088 1.41448H96.948L96.9294 3.834ZM97.2272 2.51257V1.67505H97.9716C98.0833 1.67505 98.1764 1.69366 98.2322 1.73088C98.3439 1.78672 98.3997 1.917 98.3997 2.0845C98.3997 2.25201 98.3625 2.36368 98.2694 2.41951C98.195 2.47535 98.0833 2.51257 97.9344 2.51257H97.2272ZM9.04525 5.58349L0 19.8028H6.17906L14.8893 6.21628L9.04525 5.58349ZM46.2871 5.26709V0H28.6991C26.2982 0.148893 25.256 1.30281 24.4743 2.12173C23.6368 2.99647 23.1715 4.83902 23.1715 4.83902V0.0372233H13.8098C13.1026 0.0372233 12.4326 0.335009 11.9301 1.04225C11.4089 1.73088 9.26859 5.26709 9.26859 5.26709H46.2871ZM94.119 5.26709V0H75.3027C72.9204 0.148893 71.8595 1.30281 71.0778 2.12173C70.2403 2.99647 69.775 4.83902 69.775 4.83902V5.26709H94.119ZM52.4662 0.0186116H47.1991V5.26709H52.4662V0.0186116ZM69.7192 0.0186116H64.4707V5.26709H69.7192V0.0186116ZM69.7192 7.16548L64.5451 6.84908V12.9351C64.5451 12.9351 64.5265 14.6846 62.8329 14.6846H53.9737C53.9737 14.6846 52.4662 14.5543 52.4662 12.9537V6.03017L47.2549 5.65794V14.9824C48.0925 19.4492 52.1312 19.8028 52.1312 19.8028C52.1312 19.8028 52.5406 19.8214 52.6151 19.84H64.6196C64.6196 19.84 69.7564 19.4305 69.7564 14.4798L69.7192 7.16548ZM17.8113 19.8028H42.4159C46.6966 18.9466 47.1433 15.0382 47.1433 15.0382C47.348 13.8843 47.2363 12.9351 47.2363 12.9351C47.106 12.1534 45.6171 8.69163 42.4159 8.39385C40.4989 8.20773 23.432 6.84908 23.432 6.84908C23.7671 8.56135 24.5301 9.4361 25.0513 9.92C26.2424 11.0553 28.1222 11.3903 28.1222 11.3903L41.2806 12.4884C41.6901 12.507 42.4531 12.6187 42.4345 13.6237C42.4345 13.754 42.3228 14.6287 41.355 14.6287H22.9481V6.81186L17.8299 6.43962C17.8113 6.43962 17.8113 19.8028 17.8113 19.8028ZM69.7564 19.84H88.5914C93.3187 19.5608 93.9887 15.0754 93.9887 15.0754C94.1562 13.9029 94.026 12.9351 94.026 12.9351C93.8957 11.8742 92.3881 8.67302 89.1683 8.35662C87.2699 8.17051 70.0914 7.16548 70.0914 7.16548C70.5939 8.93358 71.2825 9.47332 71.8037 9.95722C72.9948 11.1111 74.7629 11.3717 74.7629 11.3717C75.2096 11.4089 88.0516 12.4884 88.0516 12.4884C88.4611 12.507 89.2986 12.5442 89.2986 13.5493C89.2986 13.8471 89.1497 14.1635 88.9636 14.331C88.9636 14.331 88.5169 14.5729 88.0888 14.5729H69.8122L69.7564 19.84Z" fill="#3E3E3E"/>
</g>
<defs>
<clipPath id="clip0_367_70">
<rect width="100" height="19.84" fill="white"/>
</clipPath>
</defs>
</svg>
