<svg width="108" height="108" viewBox="0 0 108 108" fill="none" xmlns="http://www.w3.org/2000/svg">
<g id="Dell_logo_2016 1">
<path id="Vector" d="M50.4986 41.5818L38.0792 51.136C36.8056 46.3582 32.6639 42.854 27.5681 42.854H18.6515V64.829H27.5681C32.6636 64.829 37.1215 61.3243 38.0769 56.5472L50.4983 66.1012L62.9197 56.5472V64.829H76.9308V60.3694H67.6969V42.8542H62.5999V51.1332L50.816 60.69L48.2674 58.4594L54.0021 53.9997L60.0514 49.2226L56.5493 46.3581L44.7654 55.5919L42.2182 53.3621L54.0021 44.4456L50.4974 41.581L50.4986 41.5818ZM23.4292 47.311H27.2514C28.0476 47.311 28.8243 47.4925 29.5408 47.821C30.2574 48.1494 30.9122 48.6263 31.4696 49.2235C32.0269 49.8206 32.4858 50.5359 32.8042 51.3421C33.1227 52.1482 33.3006 53.0451 33.3006 54.0005C33.3006 54.8763 33.1412 55.7321 32.8476 56.5233C32.554 57.3145 32.1264 58.0411 31.5889 58.6582C31.0515 59.2752 30.4053 59.7833 29.6738 60.1367C28.9423 60.49 28.1271 60.6873 27.2514 60.6873H23.4292L23.4292 47.311ZM92.8556 60.3708V64.8294H78.8431V42.8544H83.9386V60.3697L92.8556 60.3708ZM54 4C26.6111 4 4 26.6111 4 54C4 81.3889 26.2931 104 54 104C81.7069 104 104 81.7069 104 54C104 26.2931 81.3889 4 54 4ZM54 9.09708C57.105 9.09705 60.1344 9.40871 63.0603 10.0058C65.9862 10.603 68.8096 11.4836 71.4967 12.6182C74.1837 13.7527 76.7363 15.1428 79.1247 16.755C81.5132 18.3672 83.7378 20.2017 85.7681 22.2319C87.7983 24.2622 89.6326 26.4868 91.245 28.8753C92.8572 31.2637 94.2472 33.8162 95.3818 36.5033C96.5164 39.1904 97.3969 42.0139 97.9942 44.9397C98.5913 47.8657 98.9029 50.895 98.9029 54C98.9029 57.105 98.5913 60.1344 97.9942 63.0603C97.397 65.9862 96.5164 68.8096 95.3818 71.4967C94.2472 74.1837 92.8572 76.7363 91.245 79.1247C89.6328 81.5132 87.7983 83.7378 85.7681 85.7681C83.7378 87.7983 81.5132 89.6326 79.1247 91.245C76.7363 92.8572 74.1837 94.2472 71.4967 95.3818C68.8096 96.5164 65.9861 97.3969 63.0603 97.9942C60.1343 98.5913 57.105 98.9029 54 98.9029C50.895 98.9029 47.8656 98.5913 44.9397 97.9942C42.0133 97.4011 39.1897 96.5205 36.5022 95.3858C33.8161 94.2511 31.2633 92.8608 28.8744 91.2483C26.4856 89.6372 24.2619 87.8025 22.2314 85.7719C20.2008 83.7414 18.3661 81.5178 16.7544 79.1289C15.1422 76.74 13.7522 74.1872 12.6176 71.5011C11.4831 68.8136 10.6025 65.99 10.0053 63.0636C9.40819 60.1386 9.09653 57.1094 9.09653 54.0039C9.09653 50.8983 9.40819 47.8692 10.0053 44.9442C10.6024 42.0178 11.4831 39.1942 12.6176 36.5067C13.7522 33.8206 15.1422 31.2678 16.7544 28.8789C18.3661 26.49 20.2008 24.2664 22.2314 22.2358C24.2619 20.2053 26.4856 18.3706 28.8744 16.7589C31.2633 15.1467 33.8161 13.7567 36.5022 12.6221C39.1897 11.4875 42.0133 10.6069 44.9397 10.0097C47.8647 9.41264 50.8939 9.10097 53.9994 9.10097L54 9.09708Z" fill="#3E3E3E"/>
</g>
</svg>
