<svg width="188" height="63" viewBox="0 0 188 63" fill="none" xmlns="http://www.w3.org/2000/svg">
<g id="Layer_1" clip-path="url(#clip0_75_391)">
<path id="Vector" d="M28.7403 16.1067H43.6305V60.3515H29.6071L29.1737 54.4348C26.1156 59.1798 21.6426 61.5522 15.7558 61.5522C10.7933 61.5522 6.92567 60.1388 4.15567 57.3079C1.38567 54.4784 0 50.5194 0 45.4324V16.1067H14.8903V42.0018C14.8903 44.2316 15.409 45.9607 16.448 47.1893C17.4869 48.4178 18.9872 49.032 20.9491 49.032C23.2576 49.032 25.1327 48.1747 26.5757 46.4601C28.0188 44.7455 28.7389 42.4879 28.7389 39.6861V16.1067H28.7403Z" fill="url(#paint0_linear_75_391)"/>
<path id="Vector_2" d="M67.8631 42.7733L64.3142 46.3743V60.3515H49.424V-0.69873H64.3142V30.8554L77.1253 16.1081H95.219L77.9055 33.6863C74.558 36.7153 71.2105 39.7443 67.8644 42.7746L67.8631 42.7733Z" fill="url(#paint1_linear_75_391)"/>
<path id="Vector_3" d="M149.484 60.3515V-0.69873H164.374V60.3515H149.484Z" fill="url(#paint2_linear_75_391)"/>
<path id="Vector_4" d="M78.4469 60.2696L67.799 42.6913C71.1464 39.6623 74.4939 36.632 77.84 33.603L96.1058 60.2696H78.4455H78.4469Z" fill="url(#paint3_linear_75_391)"/>
<path id="Vector_5" d="M77.8815 58.93C97.0914 46.0479 116.303 33.1644 135.513 20.2822C137.972 23.1131 140.431 25.9439 142.892 28.7761C127.297 39.2739 111.702 49.773 96.1072 60.2708C90.0324 59.8243 83.9563 59.3778 77.8815 58.9314V58.93Z" fill="url(#paint4_linear_75_391)"/>
<path id="Vector_6" d="M104.072 56.0107C108.009 53.2749 111.946 50.5392 115.881 47.8021C116.211 48.1258 119.315 51.0729 123.791 50.3913C128.844 49.6224 130.852 44.9594 130.948 44.7256C135.022 45.2461 139.096 45.7678 143.172 46.2883C142.29 48.1073 140.838 50.6317 138.504 53.1996C136.825 55.0477 133.203 58.9366 127.027 60.9472C124.883 61.6446 118.795 63.5297 111.894 61.0132C108.086 59.6249 105.504 57.4334 104.072 56.0094V56.0107Z" fill="url(#paint5_linear_75_391)"/>
<path id="Vector_7" d="M97.3795 45.0373C96.726 43.0849 94.7682 36.4047 97.8676 29.1473C100.331 23.3786 104.653 20.3786 106.686 19.0075C108.916 17.5029 113.778 14.3233 120.689 14.5307C128.146 14.7552 133.167 18.7789 134.693 20.1052C130.734 22.7247 126.775 25.3429 122.816 27.9624C122.272 27.4353 120.893 26.2464 118.783 25.899C116.156 25.467 114.149 26.6295 113.289 27.1275C112.426 27.6268 110.24 28.9386 109.3 31.6928C108.478 34.0996 109.094 36.1934 109.344 36.9159C105.355 39.6226 101.367 42.3293 97.3782 45.036L97.3795 45.0373Z" fill="url(#paint6_linear_75_391)"/>
<g id="Group">
<path id="Vector_8" d="M179.75 8.28535H177.78V-0.703895C177.827 -0.707858 177.872 -0.714463 177.916 -0.714463C178.399 -0.714463 178.883 -0.718426 179.366 -0.709179C179.435 -0.707858 179.533 -0.660303 179.567 -0.603501C180.576 1.03847 181.576 2.68309 182.579 4.32902C182.684 4.50207 182.792 4.67512 182.916 4.87591C183.072 4.62228 183.215 4.39243 183.355 4.16126C184.302 2.58269 185.249 1.00413 186.19 -0.578402C186.252 -0.682759 186.318 -0.717105 186.436 -0.715784C186.948 -0.7105 187.459 -0.713142 188 -0.713142V8.28403H186.052V2.97635C186.037 2.97106 186.021 2.96578 186.006 2.96181C185.904 3.12694 185.801 3.29206 185.701 3.4585C184.954 4.70022 184.207 5.94062 183.464 7.18498C183.391 7.30783 183.31 7.36331 183.163 7.35274C182.986 7.33953 182.805 7.33821 182.628 7.35274C182.467 7.36727 182.379 7.30254 182.299 7.17177C181.531 5.91023 180.757 4.65134 179.983 3.39245C179.919 3.28942 179.853 3.1877 179.751 3.09787V8.28799L179.75 8.28535Z" fill="url(#paint7_linear_75_391)"/>
<path id="Vector_9" d="M171.619 0.985815C171.539 0.985815 171.481 0.985815 171.425 0.985815C170.597 0.985815 169.769 0.985815 168.941 0.985815C168.701 0.985815 168.702 0.987136 168.702 0.742756C168.702 0.265883 168.702 -0.21231 168.702 -0.702393H176.635V0.97921H173.727C173.727 1.11131 173.727 1.21699 173.727 1.32399C173.727 3.57493 173.727 5.82455 173.727 8.0755C173.727 8.29478 173.727 8.29478 173.501 8.29478C172.943 8.29478 172.384 8.28817 171.827 8.29874C171.663 8.30138 171.613 8.26043 171.615 8.09267C171.62 5.8021 171.619 3.51284 171.619 1.22227C171.619 1.14962 171.619 1.07696 171.619 0.987136V0.985815Z" fill="url(#paint8_linear_75_391)"/>
</g>
</g>
<defs>
<linearGradient id="paint0_linear_75_391" x1="3.55079e-07" y1="61.5522" x2="42.3704" y2="13.6161" gradientUnits="userSpaceOnUse">
<stop stop-color="white"/>
<stop offset="1" stop-color="white"/>
</linearGradient>
<linearGradient id="paint1_linear_75_391" x1="49.424" y1="60.3515" x2="106.344" y2="10.0368" gradientUnits="userSpaceOnUse">
<stop stop-color="white"/>
<stop offset="1" stop-color="white"/>
</linearGradient>
<linearGradient id="paint2_linear_75_391" x1="149.484" y1="60.3515" x2="179.937" y2="51.5987" gradientUnits="userSpaceOnUse">
<stop stop-color="white"/>
<stop offset="1" stop-color="white"/>
</linearGradient>
<linearGradient id="paint3_linear_75_391" x1="64.1465" y1="64.5362" x2="100.415" y2="24.3206" gradientUnits="userSpaceOnUse">
<stop stop-color="#2F695D"/>
<stop offset="1" stop-color="#7BFFE4"/>
</linearGradient>
<linearGradient id="paint4_linear_75_391" x1="69.493" y1="66.669" x2="117.309" y2="-14.5306" gradientUnits="userSpaceOnUse">
<stop stop-color="#2F695D"/>
<stop offset="1" stop-color="#7BFFE4"/>
</linearGradient>
<linearGradient id="paint5_linear_75_391" x1="104.072" y1="62.2821" x2="115.047" y2="33.4774" gradientUnits="userSpaceOnUse">
<stop stop-color="white"/>
<stop offset="1" stop-color="white"/>
</linearGradient>
<linearGradient id="paint6_linear_75_391" x1="96.1671" y1="45.0373" x2="122.713" y2="5.54437" gradientUnits="userSpaceOnUse">
<stop stop-color="white"/>
<stop offset="1" stop-color="white"/>
</linearGradient>
<linearGradient id="paint7_linear_75_391" x1="177.78" y1="8.28799" x2="185.893" y2="-2.5637" gradientUnits="userSpaceOnUse">
<stop stop-color="white"/>
<stop offset="1" stop-color="white"/>
</linearGradient>
<linearGradient id="paint8_linear_75_391" x1="168.702" y1="8.29886" x2="177.152" y2="-0.476728" gradientUnits="userSpaceOnUse">
<stop stop-color="white"/>
<stop offset="1" stop-color="white"/>
</linearGradient>
<clipPath id="clip0_75_391">
<rect width="188" height="63" fill="white"/>
</clipPath>
</defs>
</svg>
