<svg width="100" height="100" viewBox="0 0 100 100" fill="none" xmlns="http://www.w3.org/2000/svg">
<g id="HP_New_Logo_2D 1" clip-path="url(#clip0_367_52)">
<g id="Group">
<path id="Vector" d="M50.1392 0.000270086L39.3812 30.1629L46.6943 30.1652C51.9623 30.1667 54.2041 34.3203 52.5452 38.9719L41.8482 68.9635H31.0842L42.8532 35.9629H37.311L25.543 68.9635H14.686L38.834 1.25118C16.596 6.32439 0 26.2227 0 49.9982C0 73.4036 16.082 93.05 37.798 98.4971L62.195 29.9948H79.864C83.5185 29.9948 88.1148 32.4589 86.1286 38.0673L76.2083 66.0789C74.9411 69.657 71.929 70.3821 69.5294 70.3821H58.6674L48.1324 99.9617C48.7527 99.9844 49.3742 100 49.9996 100C77.6136 100 99.9996 77.6146 99.9996 49.999C99.9995 22.4305 77.6886 0.0750015 50.1376 0L50.1392 0.000270086ZM70.9542 35.882L60.7072 64.6466H66.1639L76.4129 35.882H70.9542Z" fill="#3E3E3E"/>
</g>
</g>
<defs>
<clipPath id="clip0_367_52">
<rect width="100" height="100" fill="white"/>
</clipPath>
</defs>
</svg>
