<svg width="30" height="30" viewBox="0 0 30 30" fill="none" xmlns="http://www.w3.org/2000/svg">
<g id="Frame">
<path id="Vector" d="M15 2.5C21.9035 2.5 27.5 8.09644 27.5 15C27.5 21.9035 21.9035 27.5 15 27.5C8.09644 27.5 2.5 21.9035 2.5 15C2.5 8.09644 8.09644 2.5 15 2.5ZM19.0246 11.2121L13.4375 16.7991L10.9754 14.3371C10.6093 13.971 10.0157 13.971 9.64959 14.3371C9.28347 14.7032 9.28347 15.2968 9.64959 15.6629L12.7746 18.7879C13.1407 19.154 13.7343 19.154 14.1004 18.7879L20.3504 12.5379C20.7165 12.1718 20.7165 11.5782 20.3504 11.2121C19.9843 10.846 19.3907 10.846 19.0246 11.2121Z" fill="#3E3E3E"/>
</g>
</svg>
