<svg width="32" height="35" viewBox="0 0 32 35" fill="none" xmlns="http://www.w3.org/2000/svg">
<path id="Vector" fill-rule="evenodd" clip-rule="evenodd" d="M19.3294 0C21.3113 0 23.2932 0.875 24.5043 2.51562L29.8995 9.1875C30.7803 10.3906 31.3309 11.8125 31.3309 13.2344V28.4375C31.3309 32.0469 28.358 35 24.7246 35H7.10776C3.4743 35 0.501465 32.0469 0.501465 28.4375V6.5625C0.501465 2.95312 3.4743 0 7.10776 0H19.3294ZM22.7427 12.3594C20.7608 10.3906 17.6778 10.1719 15.4757 11.9219C15.0353 12.25 14.9252 13.0156 15.2555 13.4531C15.5858 13.8906 16.3566 14 16.797 13.6719C18.1183 12.6875 19.99 12.7969 21.0911 14C22.4124 15.3125 22.4124 17.3906 21.0911 18.5938L15.2555 24.3906C13.9343 25.5938 11.9524 25.4844 10.7412 24.2812C9.53007 23.0781 9.41997 21.1094 10.6311 19.7969L13.3837 17.0625C13.8242 16.7344 14.4848 16.7344 14.8151 17.1719C15.2555 17.6094 15.2555 18.2656 14.8151 18.7031L12.1726 21.3281C11.8423 21.7656 11.8423 22.4219 12.2827 22.75C12.7231 23.1875 13.3837 23.1875 13.8242 22.75L16.4667 20.125C17.5677 18.8125 17.5677 16.8438 16.3566 15.6406C15.0353 14.3281 12.9433 14.3281 11.7322 15.6406L9.19976 18.1562C6.99766 20.3438 6.99766 23.7344 9.19976 25.9219C11.4019 28.1094 14.8151 28.1094 17.0172 25.9219L23.073 19.9062C24.8347 17.8281 24.8347 14.4375 22.7427 12.3594Z" fill="#3E3E3E"/>
</svg>
