<svg width="30" height="31" viewBox="0 0 30 31" fill="none" xmlns="http://www.w3.org/2000/svg">
<path id="Vector" opacity="0.71" d="M19.6337 12.6337L16.7675 15.5L19.6337 18.3663C20.1225 18.855 20.1225 19.645 19.6337 20.1337C19.39 20.3775 19.07 20.5 18.75 20.5C18.43 20.5 18.11 20.3775 17.8663 20.1337L15 17.2675L12.1337 20.1337C11.89 20.3775 11.57 20.5 11.25 20.5C10.93 20.5 10.61 20.3775 10.3663 20.1337C9.8775 19.645 9.8775 18.855 10.3663 18.3663L13.2325 15.5L10.3663 12.6337C9.8775 12.145 9.8775 11.355 10.3663 10.8663C10.855 10.3775 11.645 10.3775 12.1337 10.8663L15 13.7325L17.8663 10.8663C18.355 10.3775 19.145 10.3775 19.6337 10.8663C20.1225 11.355 20.1225 12.145 19.6337 12.6337ZM30 15.5C30 23.7712 23.2712 30.5 15 30.5C6.72875 30.5 0 23.7712 0 15.5C0 7.22875 6.72875 0.5 15 0.5C23.2712 0.5 30 7.22875 30 15.5ZM27.5 15.5C27.5 8.6075 21.8925 3 15 3C8.1075 3 2.5 8.6075 2.5 15.5C2.5 22.3925 8.1075 28 15 28C21.8925 28 27.5 22.3925 27.5 15.5Z" fill="#6F6F6F"/>
</svg>
