<svg width="35" height="35" viewBox="0 0 35 35" fill="none" xmlns="http://www.w3.org/2000/svg">
<path d="M26.25 17.5C24.7135 17.5018 23.2036 17.0985 21.8727 16.3307C20.5418 15.5629 19.4367 14.4579 18.6691 13.1269C17.9014 11.7959 17.4981 10.286 17.5 8.74949C17.5019 7.21297 17.9088 5.70411 18.6798 4.375H6.18625L6.125 3.86167C5.99932 2.79796 5.48779 1.81731 4.68736 1.10557C3.88692 0.393829 2.85319 0.00045622 1.78208 0L1.45833 0C1.07156 0 0.700626 0.153645 0.427136 0.427136C0.153645 0.700627 0 1.07156 0 1.45833C0 1.84511 0.153645 2.21604 0.427136 2.48953C0.700626 2.76302 1.07156 2.91667 1.45833 2.91667H1.78208C2.13928 2.91671 2.48403 3.04785 2.75096 3.28521C3.01788 3.52257 3.18842 3.84963 3.23021 4.20437L5.23688 21.2669C5.4452 23.0414 6.29778 24.6776 7.63278 25.865C8.96778 27.0524 10.6923 27.7084 12.479 27.7083H27.7083C28.0951 27.7083 28.466 27.5547 28.7395 27.2812C29.013 27.0077 29.1667 26.6368 29.1667 26.25C29.1667 25.8632 29.013 25.4923 28.7395 25.2188C28.466 24.9453 28.0951 24.7917 27.7083 24.7917H12.479C11.5761 24.7894 10.696 24.5079 9.95946 23.9857C9.22291 23.4635 8.66596 22.7262 8.365 21.875H25.7498C27.4594 21.8751 29.1147 21.2745 30.4264 20.1781C31.7382 19.0818 32.623 17.5594 32.9262 15.8769L33.2733 13.9533C32.4621 15.0532 31.404 15.9471 30.1841 16.5631C28.9642 17.1791 27.6166 17.5001 26.25 17.5Z" fill="url(#paint0_linear_249_145)"/>
<path d="M10.2082 35C11.819 35 13.1248 33.6942 13.1248 32.0833C13.1248 30.4725 11.819 29.1667 10.2082 29.1667C8.59734 29.1667 7.2915 30.4725 7.2915 32.0833C7.2915 33.6942 8.59734 35 10.2082 35Z" fill="url(#paint1_linear_249_145)"/>
<path d="M24.7917 35C26.4025 35 27.7083 33.6942 27.7083 32.0833C27.7083 30.4725 26.4025 29.1667 24.7917 29.1667C23.1808 29.1667 21.875 30.4725 21.875 32.0833C21.875 33.6942 23.1808 35 24.7917 35Z" fill="url(#paint2_linear_249_145)"/>
<path d="M22.9442 13.0462C23.195 13.3171 23.4981 13.5343 23.8353 13.6847C24.1724 13.8351 24.5365 13.9156 24.9057 13.9212H24.9538C25.3155 13.9224 25.6739 13.8518 26.0081 13.7133C26.3423 13.5749 26.6457 13.3714 26.9007 13.1148L33.1307 6.88479C33.4055 6.61057 33.5601 6.23841 33.5605 5.85019C33.5609 5.46197 33.4071 5.08949 33.1328 4.81468C32.8586 4.53988 32.4865 4.38527 32.0982 4.38486C31.71 4.38445 31.3375 4.53827 31.0627 4.8125L24.9567 10.9287L23.1571 8.99791C22.8929 8.71499 22.5272 8.54859 22.1404 8.53533C21.7535 8.52206 21.3772 8.66302 21.0943 8.92718C20.8114 9.19135 20.645 9.55709 20.6317 9.94394C20.6185 10.3308 20.7594 10.7071 21.0236 10.99L22.9442 13.0462Z" fill="url(#paint3_linear_249_145)"/>
<defs>
<linearGradient id="paint0_linear_249_145" x1="2.70789e-07" y1="27.7083" x2="24.5366" y2="-7.01338" gradientUnits="userSpaceOnUse">
<stop stop-color="white"/>
<stop offset="1" stop-color="white"/>
</linearGradient>
<linearGradient id="paint1_linear_249_145" x1="7.2915" y1="35" x2="12.6986" y2="28.6282" gradientUnits="userSpaceOnUse">
<stop stop-color="white"/>
<stop offset="1" stop-color="white"/>
</linearGradient>
<linearGradient id="paint2_linear_249_145" x1="21.875" y1="35" x2="27.2821" y2="28.6282" gradientUnits="userSpaceOnUse">
<stop stop-color="white"/>
<stop offset="1" stop-color="white"/>
</linearGradient>
<linearGradient id="paint3_linear_249_145" x1="20.6309" y1="13.9213" x2="28.6888" y2="1.04683" gradientUnits="userSpaceOnUse">
<stop stop-color="white"/>
<stop offset="1" stop-color="white"/>
</linearGradient>
</defs>
</svg>
