<svg width="25" height="25" viewBox="0 0 25 25" fill="none" xmlns="http://www.w3.org/2000/svg">
<g id="fi_3670014" clip-path="url(#clip0_75_484)">
<g id="Layer 2">
<g id="01.facebook">
<path id="icon" d="M12.5 0C10.0277 0 7.61099 0.733112 5.55538 2.10663C3.49976 3.48015 1.89761 5.43238 0.951511 7.71646C0.0054161 10.0005 -0.242126 12.5139 0.24019 14.9386C0.722505 17.3634 1.91301 19.5907 3.66117 21.3388C5.40933 23.087 7.63661 24.2775 10.0614 24.7598C12.4861 25.2421 14.9995 24.9946 17.2835 24.0485C19.5676 23.1024 21.5199 21.5002 22.8934 19.4446C24.2669 17.389 25 14.9723 25 12.5C25 9.18479 23.683 6.00537 21.3388 3.66117C18.9946 1.31696 15.8152 0 12.5 0ZM16.4602 11.0213L16.2088 13.1974C16.1987 13.2969 16.1522 13.3892 16.0783 13.4565C16.0044 13.5239 15.9082 13.5616 15.8082 13.5625H13.5355L13.5242 20.0185C13.5249 20.095 13.4955 20.1687 13.4424 20.2237C13.3892 20.2787 13.3165 20.3106 13.2401 20.3125H10.9375C10.8992 20.3125 10.8613 20.3048 10.8261 20.2898C10.7909 20.2749 10.759 20.2529 10.7325 20.2253C10.706 20.1977 10.6853 20.165 10.6717 20.1293C10.6581 20.0935 10.6519 20.0553 10.6534 20.017V13.5625H8.94887C8.89533 13.5619 8.84243 13.5508 8.79318 13.5298C8.74393 13.5088 8.6993 13.4783 8.66184 13.4401C8.62438 13.4018 8.59482 13.3566 8.57485 13.3069C8.55488 13.2572 8.5449 13.2041 8.54546 13.1506L8.53694 10.973C8.53618 10.9193 8.54602 10.8659 8.56589 10.816C8.58576 10.7661 8.61527 10.7206 8.65273 10.6821C8.69019 10.6435 8.73487 10.6128 8.78422 10.5915C8.83357 10.5703 8.88662 10.559 8.94034 10.5582H10.6534V8.45597C10.6534 6.01562 12.1023 4.6875 14.2273 4.6875H15.9688C16.0226 4.68806 16.0758 4.69924 16.1253 4.7204C16.1748 4.74156 16.2197 4.77229 16.2573 4.81083C16.2949 4.84936 16.3245 4.89494 16.3445 4.94496C16.3644 4.99497 16.3743 5.04843 16.3736 5.10227V6.93608C16.3743 6.98992 16.3644 7.04338 16.3445 7.09339C16.3245 7.14341 16.2949 7.18899 16.2573 7.22752C16.2197 7.26606 16.1748 7.29679 16.1253 7.31795C16.0758 7.33912 16.0226 7.3503 15.9688 7.35085H14.9006C13.7457 7.35085 13.5213 7.91903 13.5213 8.73864V10.5582H16.0597C16.1175 10.5592 16.1744 10.5723 16.2268 10.5967C16.2791 10.6212 16.3258 10.6564 16.3636 10.7001C16.4014 10.7438 16.4295 10.795 16.4462 10.8504C16.4629 10.9057 16.4676 10.964 16.4602 11.0213Z" fill="white"/>
</g>
</g>
</g>
<defs>
<clipPath id="clip0_75_484">
<rect width="25" height="25" fill="white"/>
</clipPath>
</defs>
</svg>
