<svg width="24" height="35" viewBox="0 0 24 35" fill="none" xmlns="http://www.w3.org/2000/svg">
<g id="Vector">
<path d="M23.2292 18.0765C23.2292 17.3765 22.6903 16.8412 21.9856 16.8412C21.281 16.8412 20.7421 17.3765 20.7421 18.0765C20.7421 22.8941 16.8042 26.8059 11.9544 26.8059C7.10464 26.8059 3.16676 22.8941 3.16676 18.0765C3.16676 17.3765 2.6279 16.8412 1.92323 16.8412C1.21855 16.8412 0.679688 17.3765 0.679688 18.0765C0.679688 23.8 4.99062 28.6176 10.7109 29.2353V32.5294H6.19271C5.48804 32.5294 4.94917 33.0647 4.94917 33.7647C4.94917 34.4647 5.48804 35 6.19271 35H17.7162C18.4208 35 18.9597 34.4647 18.9597 33.7647C18.9597 33.0647 18.4208 32.5294 17.7162 32.5294H13.198V29.2353C18.9183 28.6176 23.2292 23.8 23.2292 18.0765Z" fill="#3E3E3E"/>
<path d="M12.6352 0C8.82171 0 5.71286 3.08823 5.71286 6.87647V18.0353C5.71286 21.8647 8.82171 24.9118 12.6352 24.9529C16.4487 24.9529 19.5576 21.8647 19.5576 18.0765V6.87647C19.5576 3.08823 16.4487 0 12.6352 0Z" fill="#3E3E3E"/>
</g>
</svg>
