<svg width="26" height="26" viewBox="0 0 26 26" fill="none" xmlns="http://www.w3.org/2000/svg">
<g clip-path="url(#clip0_324_760)">
<path d="M24.9589 21.4322L19.1344 15.6841C20.124 14.1294 20.6984 12.2918 20.6984 10.3197C20.6984 4.7404 16.1149 0.218079 10.4613 0.218079C4.8076 0.218079 0.224609 4.7404 0.224609 10.3197C0.224609 15.8992 4.80739 20.4211 10.4613 20.4211C12.6361 20.4211 14.6505 19.7501 16.3082 18.61L22.0634 24.2897C22.4633 24.6839 22.9875 24.8803 23.5111 24.8803C24.0354 24.8803 24.559 24.6839 24.9595 24.2897C25.7587 23.5002 25.7587 22.2214 24.9589 21.4322ZM10.4613 17.1483C6.63991 17.1483 3.54178 14.0913 3.54178 10.3201C3.54178 6.54895 6.63991 3.4917 10.4613 3.4917C14.2829 3.4917 17.3808 6.54895 17.3808 10.3201C17.3808 14.0913 14.2829 17.1483 10.4613 17.1483Z" fill="#2F695D"/>
</g>
<defs>
<clipPath id="clip0_324_760">
<rect width="25.3342" height="25" fill="white" transform="translate(0.224609 0.0492554)"/>
</clipPath>
</defs>
</svg>
