<svg width="25" height="25" viewBox="0 0 25 25" fill="none" xmlns="http://www.w3.org/2000/svg">
<g id="fi_5969020" clip-path="url(#clip0_75_480)">
<g id="Group">
<path id="Vector" d="M12.5 0C5.59668 0 0 5.59668 0 12.5C0 19.4033 5.59668 25 12.5 25C19.4033 25 25 19.4033 25 12.5C25 5.59668 19.4033 0 12.5 0Z" fill="white"/>
<path id="Vector_2" d="M13.8675 11.3689L19.2186 5.14868H17.9506L13.3042 10.5496L9.59318 5.14868H5.31294L10.9247 13.3158L5.31294 19.8387H6.58106L11.4877 14.1351L15.4069 19.8387H19.6871L13.8672 11.3689H13.8675ZM7.03796 6.10331H8.9857L17.9511 18.9275H16.0034L7.03796 6.10331Z" fill="black"/>
</g>
</g>
<defs>
<clipPath id="clip0_75_480">
<rect width="25" height="25" fill="white"/>
</clipPath>
</defs>
</svg>
