<svg width="113" height="37" viewBox="0 0 113 37" fill="none" xmlns="http://www.w3.org/2000/svg">
<g id="lenovo-2 1" clip-path="url(#clip0_367_58)">
<path id="Vector" d="M0.022583 -3.8147e-06H112.977V37H0.022583V-3.8147e-06Z" fill="#3E3E3E"/>
<path id="Vector_2" d="M49.1936 12.4729C47.487 12.4729 45.6738 13.2066 44.5005 14.7788V12.7875H40.5541V27.0424H44.5005V18.8668C44.5005 17.3994 45.6738 15.8271 47.8071 15.8271C49.4071 15.8271 51.1137 16.9801 51.1137 18.8668V26.9375H55.0602V18.1331C55.1667 14.8837 52.7134 12.4729 49.1936 12.4729ZM83.4319 12.6826L79.8056 22.4303L76.1789 12.6826H71.6992L77.6723 26.9375H82.0452L87.9116 12.6826H83.4319ZM36.2876 22.5352C34.581 23.793 33.621 24.0028 32.1277 24.0028C30.7412 24.0028 29.6745 23.5835 28.9279 22.8498L39.0607 18.6572C38.8474 17.085 38.2073 15.7223 37.3542 14.6742C35.9675 13.1019 34.0476 12.3682 31.5945 12.3682C27.2214 12.3682 23.9148 15.5127 23.9148 19.7053C23.9148 24.0028 27.2214 27.0426 32.021 27.0426C34.6875 27.0426 37.4607 25.7847 38.7407 24.3172L36.2876 22.5352ZM28.6079 16.9801C29.248 16.0367 30.3144 15.5127 31.7011 15.5127C33.0876 15.5127 34.2609 16.3513 34.7942 17.5042L27.8613 20.3343C27.6481 18.9716 28.0747 17.8186 28.6079 16.9801ZM23.5949 23.3738H14.5287V8.49004H10.4755V26.9375H23.5949V23.3738ZM95.0581 27.1471C90.6852 27.1471 87.2719 24.0028 87.2719 19.81C87.2719 15.7221 90.685 12.4729 95.0581 12.4729C99.4311 12.4729 102.844 15.6174 102.844 19.81C102.951 24.0028 99.5378 27.1471 95.0581 27.1471ZM95.0581 15.8271C92.8181 15.8271 91.2182 17.5042 91.2182 19.8102C91.2182 22.0112 92.9248 23.7932 95.0581 23.7932C97.298 23.7932 98.8981 22.1161 98.8981 19.8102C99.0044 17.6089 97.2978 15.8271 95.0581 15.8271ZM64.4462 27.1471C60.0732 27.1471 56.6599 24.0028 56.6599 19.81C56.6599 15.7221 60.0732 12.4729 64.4462 12.4729C68.8193 12.4729 72.2324 15.6174 72.2324 19.81C72.2324 24.0026 68.8195 27.1471 64.4462 27.1471ZM64.4462 15.8271C62.2063 15.8271 60.6062 17.5042 60.6062 19.8102C60.6062 22.0112 62.3129 23.7932 64.4462 23.7932C66.6862 23.7932 68.2861 22.1161 68.2861 19.8102C68.3927 17.6089 66.6862 15.8271 64.4462 15.8271ZM103.484 25.2604H102.844V24.946H104.551V25.2604H103.911V26.9375H103.484V25.2604ZM104.978 24.9462H105.404L106.044 25.8896L106.684 24.9462H107.111V27.0426H106.684V25.575L106.044 26.5184L105.404 25.575V27.0426H104.978V24.9462Z" fill="#E8E8E8"/>
</g>
<defs>
<clipPath id="clip0_367_58">
<rect width="113" height="37" fill="white"/>
</clipPath>
</defs>
</svg>
