<svg width="100" height="100" viewBox="0 0 100 100" fill="none" xmlns="http://www.w3.org/2000/svg">
<g id="Vector">
<path d="M89.577 10.4484C80.1426 1.05039 66.5771 0 50 0C33.402 0 19.816 1.0625 10.3855 10.4859C0.956444 19.9054 0 33.4695 0 50.0485C0 66.6303 0.956445 80.1985 10.3895 89.6213C19.8193 99.0461 33.4037 100 50 100C66.5965 100 80.1785 99.0461 89.6084 89.6213C99.0408 80.1967 100 66.6303 100 50.0485C100 33.4482 99.0305 19.8695 89.577 10.4484Z" fill="#3E3E3E"/>
<path d="M79.0145 30.9775C79.358 30.9775 79.6439 31.2542 79.6439 31.5949V68.5842C79.6439 68.9192 79.358 69.1973 79.0145 69.1973H70.9098C70.5619 69.1973 70.2793 68.9192 70.2793 68.5842V31.5949C70.2793 31.2544 70.5617 30.9775 70.9098 30.9775H79.0145ZM43.843 30.9775C49.9568 30.9775 56.3494 31.2578 59.5023 34.4128C62.6021 37.5177 62.9379 43.6997 62.9508 49.703V68.584C62.9508 68.919 62.6684 69.1971 62.3221 69.1971H54.2186C53.8715 69.1971 53.5879 68.919 53.5879 68.584V49.3782C53.5793 46.0253 53.3865 42.5794 51.6574 40.8447C50.1691 39.3523 47.392 39.0105 44.5041 38.9396H29.8147C29.4701 38.9396 29.1881 39.2167 29.1881 39.5521V68.5842C29.1881 68.9192 28.9025 69.1973 28.5559 69.1973H20.4473C20.1008 69.1973 19.8221 68.9192 19.8221 68.5842V31.5949C19.8221 31.2544 20.1006 30.9775 20.4473 30.9775H43.843ZM45.6568 45.7093C46.0018 45.7093 46.282 45.9853 46.282 46.3232V68.5842C46.282 68.9192 46.0016 69.1973 45.6568 69.1973H37.1443C36.7943 69.1973 36.5139 68.9192 36.5139 68.5842V46.3232C36.5139 45.9853 36.7943 45.7093 37.1443 45.7093H45.6568Z" fill="#EBEBEB"/>
</g>
</svg>
