<svg width="100" height="26" viewBox="0 0 100 26" fill="none" xmlns="http://www.w3.org/2000/svg">
<g id="msi-3 1" clip-path="url(#clip0_367_73)">
<path id="Vector" d="M90.921 25.0655L97.763 6.18215C97.763 6.18215 92.6338 6.18215 87.5 7.23512L81.0511 25.0655H90.921ZM89.737 1.1185L88.4219 4.73606C93.5511 3.68308 98.6849 3.68308 98.6849 3.68308L100 0.0655216C100 0.0655216 94.8662 0.0655216 89.737 1.1185ZM54.0762 20.5915C57.1696 21.1859 60.3238 21.448 63.5483 21.448C66.9038 21.448 69.2718 20.7226 69.5339 18.4201C69.6649 17.3671 68.6119 16.5762 66.7727 15.5232C64.6668 14.3392 62.8276 13.7449 60.9837 12.4953C59.1398 11.2458 58.3536 9.33639 58.9433 7.23044C59.6687 4.7969 61.3768 3.41633 63.9414 2.10128C66.9693 0.58967 69.3373 -0.00467682 75.1919 -0.00467682C78.875 -0.00467682 82.427 0.322916 85.9135 1.0483L84.664 4.4693C81.5706 3.87496 78.4163 3.61288 75.1919 3.61288C71.8364 3.61288 69.4684 4.33827 69.2063 6.64077C69.0753 7.69375 70.1282 8.48465 71.9674 9.53763C74.0734 10.7216 75.9126 11.316 77.7565 12.5655C79.6003 13.8151 80.3866 15.7245 79.7969 17.8304C79.0715 20.264 77.3633 21.6445 74.7988 22.9596C71.7709 24.4712 69.4028 25.0655 63.5483 25.0655C59.8652 25.0655 56.3132 24.7379 52.8267 24.0125L54.0762 20.5915ZM39.2082 25.0655L44.9317 9.34107C46.8411 4.07619 39.868 5.98559 38.2862 7.23512C37.0367 8.15706 34.7997 10.3285 34.0088 12.631L29.4693 25.131H19.6041L25.3276 9.34107C27.237 4.07619 20.2639 5.98559 18.6821 7.23512C17.4326 8.15706 15.1956 10.3285 14.4047 12.631L9.86522 25.131H0L9.079 0.0655216C12.2379 0.0655216 13.9461 0.790905 15.3267 2.17147C15.8508 2.69562 16.1831 3.35549 16.3796 4.08087C18.2235 2.96238 19.8662 2.10596 20.9846 1.71284C23.0251 0.921942 25.5897 0.0655216 28.7486 0.0655216C31.9075 0.0655216 33.6157 0.790905 34.9963 2.17147C35.5204 2.69562 35.8527 3.35549 36.0492 4.08087C37.8931 2.96238 39.5358 2.10596 40.6543 1.71284C42.6947 0.921942 45.2593 0.0702015 48.4182 0.0702015C51.5771 0.0702015 53.2853 0.795585 54.6659 2.17615C56.1119 3.55672 56.0464 6.12131 55.5223 7.57207L49.0734 25.0702H39.2082V25.0655Z" fill="#3E3E3E"/>
</g>
<defs>
<clipPath id="clip0_367_73">
<rect width="100" height="25.131" fill="white"/>
</clipPath>
</defs>
</svg>
